# xmcd
# 
# Track frame offsets:
#     150
#     23832
#     44435
#     66535
#     91332
#     113327
#     140605
#     170587
# 
# Disc length: 2614
# 
# Revision: 1
# Processed by: cddbd v1.5.2PL0 Copyright (c) Steve Scherf et al.
# Submitted via: BonkEnc v1.0.5
# 
DISCID=6a0a3408
DTITLE=Amina Claudine Myers Trio - Amina
DYEAR=1988
DGENRE=Jazz
TTITLE0=Happiness
TTITLE1=Keep on loving
TTITLE2=Yes, it's real
TTITLE3=Song from the west
TTITLE4=Nolan
TTITLE5=Arms
TTITLE6=B.I.
TTITLE7=Nisamehe
EXTD=YEAR: 1988
EXTT0=
EXTT1=
EXTT2=
EXTT3=
EXTT4=
EXTT5=
EXTT6=
EXTT7=
PLAYORDER=
